<svg xmlns="http://www.w3.org/2000/svg" width="443" height="373" viewBox="0 0 443 373">
    <g fill="none" fill-rule="evenodd">
        <circle cx="234" cy="300" r="198" fill="#D7262F" fill-opacity=".026"/>
        <circle cx="37.517" cy="37.517" r="37.517" fill="#CFD8C2" fill-opacity=".15"/>
        <path fill="#D7262F" fill-opacity=".08" d="M129.972 368.008s-20.96-23.396-81.792-16.378c0 0 16.378 18.133 33.926 20.473l47.866-4.095z"/>
        <path fill="#D7262F" fill-opacity=".08" d="M165.75 346.365s-36.85-38.02-112.306-50.303c0 0 23.397 52.61 74.578 71.93h70.776l-33.048-21.627z"/>
        <path fill="#D7262F" fill-opacity=".08" d="M214.982 368.008s-53.326-95.928-121.763-119.91c0 0 19.888 87.154 98.268 122.25l23.495-2.34z"/>
        <path fill="#D7262F" fill-opacity=".08" d="M134.75 226.456s14.622 88.908 88.907 141.535l23.398.017S211.96 260.382 134.75 226.456M351.854 368.025s20.96-23.396 81.793-16.378c0 0-16.378 18.133-33.926 20.473l-47.867-4.095z"/>
        <path fill="#D7262F" fill-opacity=".08" d="M316.076 346.382s36.851-38.02 112.306-50.303c0 0-23.398 52.61-74.578 71.93h-70.777l33.05-21.627z"/>
        <path fill="#D7262F" fill-opacity=".08" d="M266.845 368.025s53.325-95.928 121.762-119.91c0 0-19.887 87.154-98.268 122.25l-23.494-2.34z"/>
        <path fill="#D7262F" fill-opacity=".08" d="M347.077 226.473s-14.623 88.908-88.909 141.535l-23.397.017s35.096-107.626 112.306-141.552"/>
        <path fill="#E8D3C9" d="M410.834 185.804v26.321a2.628 2.628 0 0 1-2.632 2.632h-43.87a2.628 2.628 0 0 1-2.632-2.632v-26.321c0-.439.106-.855.298-1.216a2.625 2.625 0 0 1 2.334-1.416h43.87c1.041 0 1.942.602 2.363 1.48.175.35.27.737.27 1.152"/>
        <path fill="#FFF8F3" d="M410.566 184.651l-24.298 16.653-24.27-16.717a2.625 2.625 0 0 1 2.335-1.415h43.87c1.04 0 1.94.602 2.363 1.48"/>
        <path fill="#E8D3C9" d="M92.05 185.804v26.321a2.628 2.628 0 0 1-2.633 2.632H45.548a2.629 2.629 0 0 1-2.633-2.632v-26.321c0-.439.106-.855.3-1.216a2.623 2.623 0 0 1 2.333-1.416h43.87c1.04 0 1.942.602 2.362 1.48.175.35.27.737.27 1.152"/>
        <path fill="#FFF8F3" d="M91.78 184.651l-24.297 16.653-24.269-16.717a2.623 2.623 0 0 1 2.334-1.415h43.87c1.04 0 1.941.602 2.362 1.48"/>
        <path fill="#EC6A26" d="M25.385 124.235l-6.232-3.463a.558.558 0 0 0-.788.698l2.787 6.815a.558.558 0 0 1-.133.617l-7.881 7.456a.558.558 0 0 1-.913-.231L.069 99.106a.557.557 0 0 1 .795-.664l32.601 17.68a.557.557 0 0 1 .117.897l-7.543 7.133a.556.556 0 0 1-.654.083M372.69 143.24l6.586 2.735a.558.558 0 0 0 .703-.783l-3.541-6.456a.555.555 0 0 1 .062-.627l6.985-8.303a.558.558 0 0 1 .934.126l16.273 35.405a.558.558 0 0 1-.716.75l-34.393-13.873a.557.557 0 0 1-.22-.876l6.687-7.943a.559.559 0 0 1 .64-.156"/>
        <path fill="#FAC4A0" d="M272.6 366.34s-2.156-21.313 2.553-33.266c4.71-11.952 22.53-34.049 14.486-51.072-8.045-17.022-56.025-32.724-66.528-8.052-10.504 24.671 10.325 66.557-2.492 91.723-4.798 9.42 39.02 6.76 49.654 1.768 1.479-.695 2.328-1.1 2.328-1.1M260.293 222.972s14.187-12.48 18.445-22.186c4.26-9.706-4.744-18.205-12.812-12.22-8.069 5.986-17.052 15.098-17.052 15.098l11.42 19.308z"/>
        <path fill="#626366" d="M311.565 271.785l-51.667 38.328a6.423 6.423 0 0 1-8.985-1.332l-78.471-105.78a6.423 6.423 0 0 1 1.332-8.986l51.667-38.327a6.424 6.424 0 0 1 8.985 1.331l78.47 105.782a6.422 6.422 0 0 1-1.331 8.984"/>
        <path fill="#FFF" d="M298.313 264.306l-41.73 30.956a5.186 5.186 0 0 1-7.255-1.075l-63.378-85.435a5.188 5.188 0 0 1 1.076-7.257l41.729-30.956a5.187 5.187 0 0 1 7.256 1.076l63.378 85.435a5.187 5.187 0 0 1-1.076 7.256"/>
        <path fill="#FAC4A0" d="M275.153 212.71s-6.745 11.55-.18 17.972c6.565 6.423 11.47.387 14.599-6.575 3.127-6.96 2.843-11.928-2.606-14.924-5.45-2.995-9.67-1.547-11.813 3.526"/>
        <path fill="#FAC4A0" d="M284.52 239.802s-.575 8.446 5.08 10.798c5.656 2.35 10.55-3.481 11.527-6.869.978-3.39 7.418-13.896.745-18.928-6.675-5.032-14.315-2.75-17.352 14.999M309.613 242.3s-5.925-3.134-10.209 6.755 8.204 17.531 13.37 6.772c3.517-7.321 2.533-10.702-3.16-13.527M220.123 367.44s4.84-22.915 1.61-36.218c-3.228-13.302-13.449-22.1-15.688-36.151-2.24-14.05-3.9-38.351-11.105-48.063-7.205-9.713-10.303-10.36-6.959-16.441 3.344-6.082 16.16-.917 24.828 10.689 8.668 11.607 10.977 24.499 15.163 33.072 4.186 8.572 18.628 28.266 23.335 32.338 4.707 4.072 12.586 6.376 15.561 10.387"/>
        <path fill="#E8D3C9" d="M300.825 49.274h44.76a3.92 3.92 0 0 1 3.92 3.92v30.363a3.92 3.92 0 0 1-3.92 3.92H320.04l-5.63 7.54a.946.946 0 0 1-1.514 0l-5.63-7.54h-6.442a3.92 3.92 0 0 1-3.92-3.92V53.194a3.92 3.92 0 0 1 3.92-3.92"/>
        <path fill="#F8EDE6" d="M377.793 38h-44.76a3.92 3.92 0 0 0-3.92 3.92v30.363a3.92 3.92 0 0 0 3.92 3.92h25.544l5.63 7.54a.945.945 0 0 0 1.514 0l5.63-7.54h6.442a3.92 3.92 0 0 0 3.92-3.92V41.92a3.92 3.92 0 0 0-3.92-3.92"/>
        <path stroke="#000" d="M244.228 245.052s-.625-2.79 1.456-3.176c2.08-.385 6.59 3.623 6.027 5.235-.562 1.61-5.42 3.297-7.514 3.005-2.321-.324-12.75-5.496-15.084-10.552-2.335-5.057-.224-10.506 2.667-9.427 2.89 1.079 6.213 3.908 5.742 4.856-.47.949-4.154 3.137-4.154 3.137s4.8 6.752 10.86 6.922z"/>
        <path stroke="#C7272E" stroke-linecap="round" stroke-width=".818" d="M242.183 228.774s6.146-.693 6.93 5.176M242.272 225.164s9.723-1.93 10.998 8.14M241.596 220.598s14.585-2.437 16.14 11.975"/>
        <path fill="#E9D1D3" d="M0 372.596h442.186v-8.773H0z"/>
        <path stroke="#FFF" stroke-linecap="round" stroke-width=".817" d="M214.594 170.598l-12.807 9.725"/>
        <path fill="#EC6A26" d="M32.3 135.055a.978.978 0 0 1-.693-.286c-1.469-1.458-2.273-2.393-2.306-2.432a.983.983 0 0 1 1.492-1.28c.008.01.792.92 2.199 2.318a.982.982 0 0 1-.692 1.68M180.613 77.763a.996.996 0 0 1-.144-.01 33.207 33.207 0 0 0-6.24-.317.983.983 0 1 1-.085-1.964 35.361 35.361 0 0 1 6.608.336.983.983 0 0 1-.14 1.955m-23.668 4.527a.982.982 0 0 1-.404-1.879 94.48 94.48 0 0 1 6.015-2.464.982.982 0 1 1 .683 1.842 93.387 93.387 0 0 0-5.89 2.413.966.966 0 0 1-.405.088m40.15 2.326a.984.984 0 0 1-.578-.189 37.969 37.969 0 0 0-5.344-3.273.983.983 0 1 1 .882-1.756 39.966 39.966 0 0 1 5.621 3.442.982.982 0 0 1-.58 1.776m-55.65 6.793a.982.982 0 0 1-.588-1.771 85.07 85.07 0 0 1 5.365-3.687.985.985 0 0 1 1.356.306.984.984 0 0 1-.306 1.356 82.137 82.137 0 0 0-5.24 3.602.978.978 0 0 1-.587.194m67.51 6.62a.983.983 0 0 1-.856-.498 43.32 43.32 0 0 0-3.495-5.233.983.983 0 0 1 1.55-1.209 45.264 45.264 0 0 1 3.655 5.472.982.982 0 0 1-.853 1.468m-80.939 5.38a.983.983 0 0 1-.705-1.668 146.372 146.372 0 0 1 4.614-4.557.983.983 0 0 1 1.346 1.431 143.468 143.468 0 0 0-4.55 4.494.983.983 0 0 1-.704.3m86.573 11.631a.98.98 0 0 1-.972-.856 47.255 47.255 0 0 0-1.228-6.183.984.984 0 0 1 1.898-.511 49.116 49.116 0 0 1 1.277 6.441.982.982 0 0 1-.975 1.11m-98.733 1.676a.984.984 0 0 1-.733-1.637l.987-1.106c1.115-1.254 2.215-2.489 3.301-3.7a.982.982 0 1 1 1.463 1.31c-1.085 1.212-2.181 2.444-3.296 3.696l-.986 1.108a.983.983 0 0 1-.736.33m-12.174 13.294a.984.984 0 0 1-.71-1.663 328.674 328.674 0 0 0 4.397-4.678.982.982 0 1 1 1.444 1.333 321.302 321.302 0 0 1-4.422 4.705.977.977 0 0 1-.71.303m110.046 2.955a.983.983 0 0 1-.96-1.194 54.21 54.21 0 0 0 .998-6.243.977.977 0 0 1 1.076-.88c.54.053.933.534.88 1.074a56.196 56.196 0 0 1-1.035 6.472.982.982 0 0 1-.959.771m-122.954 9.626a.982.982 0 0 1-.642-1.726c.417-.36.834-.732 1.25-1.118a251.72 251.72 0 0 0 3.431-3.228.982.982 0 1 1 1.36 1.42 262.186 262.186 0 0 1-3.457 3.253c-.432.4-.866.786-1.3 1.16a.983.983 0 0 1-.641.24m-44.189 3.39a.98.98 0 0 1-.483-.128 64.133 64.133 0 0 1-5.513-3.52.983.983 0 0 1 1.138-1.603 62.462 62.462 0 0 0 5.344 3.414.983.983 0 0 1-.486 1.837m160.767 3.793a.983.983 0 0 1-.862-1.451 69.733 69.733 0 0 0 2.77-5.713.984.984 0 0 1 1.807.774 71.625 71.625 0 0 1-2.85 5.876.98.98 0 0 1-.865.514m-132.31 1.291a.982.982 0 0 1-.235-1.937 32.758 32.758 0 0 0 5.89-2.075.98.98 0 0 1 1.305.48.985.985 0 0 1-.48 1.304 34.81 34.81 0 0 1-6.243 2.2.959.959 0 0 1-.237.028m-11.51.726a1.01 1.01 0 0 1-.108-.006 39.41 39.41 0 0 1-6.47-1.29.983.983 0 1 1 .54-1.89 37.092 37.092 0 0 0 6.146 1.226.983.983 0 0 1-.108 1.96m134.774 13.601a.982.982 0 0 1-.851-1.471c1.088-1.9 2.166-3.764 3.226-5.589a.983.983 0 0 1 1.7.988 900.934 900.934 0 0 0-3.22 5.577.982.982 0 0 1-.855.495m-8.727 15.796a.982.982 0 0 1-.867-1.442 437.42 437.42 0 0 1 3.06-5.687.98.98 0 0 1 1.334-.39c.477.26.651.857.392 1.333a467.104 467.104 0 0 0-3.05 5.663.982.982 0 0 1-.87.523m-8.043 16.142a.984.984 0 0 1-.891-1.397 313.13 313.13 0 0 1 2.784-5.833.983.983 0 1 1 1.765.865c-.956 1.951-1.887 3.9-2.767 5.796a.983.983 0 0 1-.891.57m-7.022 16.626a.983.983 0 0 1-.919-1.329c.743-1.97 1.54-3.997 2.374-6.027a.983.983 0 1 1 1.819.748 222.386 222.386 0 0 0-2.353 5.971.981.981 0 0 1-.92.637m-5.498 17.178a.984.984 0 0 1-.952-1.23 153.48 153.48 0 0 1 1.762-6.24.982.982 0 1 1 1.88.572 152.563 152.563 0 0 0-1.74 6.161.984.984 0 0 1-.95.737m-3.243 17.728c-.032 0-.065 0-.099-.004a.983.983 0 0 1-.88-1.076c.209-2.099.494-4.268.847-6.447a.984.984 0 0 1 1.94.315 103.324 103.324 0 0 0-.83 6.327.984.984 0 0 1-.978.885m.11 18.002a.983.983 0 0 1-.975-.86 74.51 74.51 0 0 1-.516-6.508.985.985 0 0 1 .948-1.017.974.974 0 0 1 1.017.946 72.02 72.02 0 0 0 .5 6.334.982.982 0 0 1-.975 1.105m4.727 17.336a.984.984 0 0 1-.899-.584 59.638 59.638 0 0 1-2.317-6.122.984.984 0 0 1 1.874-.594 57.401 57.401 0 0 0 2.24 5.92.984.984 0 0 1-.898 1.38m9.75 15.086a.981.981 0 0 1-.736-.33 62.07 62.07 0 0 1-4.076-5.117.983.983 0 0 1 1.6-1.14 60.01 60.01 0 0 0 3.947 4.952.98.98 0 0 1-.736 1.635M191.487 309.328a.985.985 0 0 1-.58-.189 81.123 81.123 0 0 1-2.636-2.014.983.983 0 0 1 1.226-1.536c.83.662 1.694 1.323 2.57 1.963a.983.983 0 0 1-.58 1.776M338.495 131.658a.982.982 0 0 1-.277-1.925c2.044-.602 4.331-.823 6.83-.646a.982.982 0 1 1-.138 1.96c-2.264-.159-4.317.035-6.137.571a.989.989 0 0 1-.278.04m23.75 5.181a.979.979 0 0 1-.464-.118 66.143 66.143 0 0 0-5.819-2.784.982.982 0 1 1 .755-1.814 67.719 67.719 0 0 1 5.994 2.868.982.982 0 0 1-.466 1.848m-34.609 8.426a.983.983 0 0 1-.959-1.2c.543-2.404 1.303-4.554 2.26-6.392a.982.982 0 1 1 1.744.907c-.879 1.69-1.582 3.68-2.088 5.92a.983.983 0 0 1-.957.765m-.637 18.25a.983.983 0 0 1-.977-.882 75.95 75.95 0 0 1-.4-6.35l-.005-.272a.984.984 0 0 1 .97-.997c.545-.025.988.426.996.97l.004.254c.037 1.97.165 3.993.39 6.194a.982.982 0 0 1-.978 1.083m3.116 18.067a.984.984 0 0 1-.959-.776 302.128 302.128 0 0 1-1.326-6.437.982.982 0 1 1 1.93-.373c.365 1.891.797 3.983 1.317 6.396a.982.982 0 0 1-.962 1.19m3.922 17.92a.984.984 0 0 1-.962-.784 511.605 511.605 0 0 0-1.369-6.394.983.983 0 0 1 1.92-.422c.463 2.108.926 4.247 1.374 6.418a.983.983 0 0 1-.963 1.182m3.081 18.077a.983.983 0 0 1-.974-.86c-.259-2.075-.57-4.246-.924-6.45a.983.983 0 1 1 1.94-.312c.357 2.227.672 4.421.935 6.516a.984.984 0 0 1-.977 1.106m1.183 18.29a.984.984 0 0 1-.984-.982v-.23c0-2.055-.05-4.163-.15-6.27a.983.983 0 0 1 .934-1.029.994.994 0 0 1 1.03.935c.1 2.137.152 4.28.152 6.363v.231c0 .542-.44.982-.982.982m-1.407 18.27a.982.982 0 0 1-.972-1.132c.331-2.124.606-4.29.818-6.445a.986.986 0 0 1 1.074-.882c.54.055.935.536.882 1.076a117.306 117.306 0 0 1-.833 6.551.981.981 0 0 1-.969.831m-4.238 17.827a.98.98 0 0 1-.935-1.284 118.198 118.198 0 0 0 1.817-6.235.982.982 0 1 1 1.901.497 119.056 119.056 0 0 1-1.848 6.34.984.984 0 0 1-.935.682m-6.87 16.984a.983.983 0 0 1-.881-1.416 124.72 124.72 0 0 0 2.71-5.902.984.984 0 0 1 1.806.773 126.806 126.806 0 0 1-2.752 5.995.981.981 0 0 1-.883.55m-9.42 15.693a.984.984 0 0 1-.792-1.563 95.15 95.15 0 0 0 3.645-5.355.982.982 0 0 1 1.66 1.051 97.645 97.645 0 0 1-3.72 5.466.982.982 0 0 1-.794.401m-12.339 13.502a.982.982 0 0 1-.643-1.725 75.351 75.351 0 0 0 4.695-4.438.981.981 0 1 1 1.409 1.369 77.285 77.285 0 0 1-4.818 4.554.981.981 0 0 1-.643.24m-15.292 10.018a.982.982 0 0 1-.417-1.873 62.206 62.206 0 0 0 5.685-3.038.982.982 0 1 1 1.014 1.683 63.921 63.921 0 0 1-5.866 3.135.962.962 0 0 1-.416.093"/>
    </g>
</svg>
